HIERARCHY
ROOT SpineBase
{
  OFFSET 0.000000 0.000000 0.000000
  CHANNELS 6 Xposition Yposition Zposition Zrotation Xrotation Yrotation
  JOINT SpineMid
  {
    OFFSET -0.000000 28.139056 0.000000
    CHANNELS 3 Zrotation Xrotation Yrotation
    JOINT SpineShoulder
    {
      OFFSET -0.007233 20.878025 -0.780834
      CHANNELS 3 Zrotation Xrotation Yrotation
      JOINT Neck
      {
        OFFSET 0.006941 6.911728 -0.550029
        CHANNELS 3 Zrotation Xrotation Yrotation
        JOINT Head
        {
          OFFSET -2.270032 11.866691 -0.422085
          CHANNELS 3 Zrotation Xrotation Yrotation
          End Site
          {
            OFFSET 0 0 0
          }
        }
      }
      JOINT ShoulderLeft
      {
        OFFSET -16.454179 -1.762800 4.917236
        CHANNELS 3 Zrotation Xrotation Yrotation
        JOINT ElbowLeft
        {
          OFFSET -2.907730 -25.306259 0.566573
          CHANNELS 3 Zrotation Xrotation Yrotation
          JOINT WristLeft
          {
            OFFSET -1.837139 -22.556879 -4.883032
            CHANNELS 3 Zrotation Xrotation Yrotation
            JOINT HandLeft
            {
              OFFSET 1.005033 -6.604812 -1.997776
              CHANNELS 3 Zrotation Xrotation Yrotation
              JOINT HandTipLeft
              {
                OFFSET -0.292900 -6.967955 -0.568384
                CHANNELS 3 Zrotation Xrotation Yrotation
                End Site
                {
                  OFFSET 0 0 0
                }
              }
              JOINT ThumbLeft
              {
                OFFSET 3.312792 0.141891 -3.345605
                CHANNELS 3 Zrotation Xrotation Yrotation
                End Site
                {
                  OFFSET 0 0 0
                }
              }
            }
          }
        }
      }
      JOINT ShoulderRight
      {
        OFFSET 15.321332 -1.269860 -4.593611
        CHANNELS 3 Zrotation Xrotation Yrotation
        JOINT ElbowRight
        {
          OFFSET 6.113886 -24.725869 -3.307356
          CHANNELS 3 Zrotation Xrotation Yrotation
          JOINT WristRight
          {
            OFFSET -0.670098 -17.856407 -6.391291
            CHANNELS 3 Zrotation Xrotation Yrotation
            JOINT HandRight
            {
              OFFSET -2.858411 -7.296923 -0.959059
              CHANNELS 3 Zrotation Xrotation Yrotation
              JOINT HandTipRight
              {
                OFFSET -0.696818 -6.077144 -2.455047
                CHANNELS 3 Zrotation Xrotation Yrotation
                End Site
                {
                  OFFSET 0 0 0
                }
              }
              JOINT ThumbRight
              {
                OFFSET 1.323081 -2.737459 -2.669450
                CHANNELS 3 Zrotation Xrotation Yrotation
                End Site
                {
                  OFFSET 0 0 0
                }
              }
            }
          }
        }
      }
    }
  }
  JOINT HipLeft
  {
    OFFSET -5.895101 0.189189 -1.711494
    CHANNELS 3 Zrotation Xrotation Yrotation
    JOINT KneeLeft
    {
      OFFSET -6.935738 -31.205630 2.594651
      CHANNELS 3 Zrotation Xrotation Yrotation
      JOINT AnkleLeft
      {
        OFFSET -1.991299 -37.404582 6.882475
        CHANNELS 3 Zrotation Xrotation Yrotation
        JOINT FootLeft
        {
          OFFSET -1.652367 -8.687736 -4.243534
          CHANNELS 3 Zrotation Xrotation Yrotation
          End Site
          {
            OFFSET 0 0 0
          }
        }
      }
    }
  }
  JOINT HipRight
  {
    OFFSET 5.398718 1.093994 -4.817093
    CHANNELS 3 Zrotation Xrotation Yrotation
    JOINT KneeRight
    {
      OFFSET 5.621289 -25.241134 0.750174
      CHANNELS 3 Zrotation Xrotation Yrotation
      JOINT AnkleRight
      {
        OFFSET 1.818235 -37.040304 9.248902
        CHANNELS 3 Zrotation Xrotation Yrotation
        JOINT FootRight
        {
          OFFSET -2.695295 -4.968085 -10.459268
          CHANNELS 3 Zrotation Xrotation Yrotation
          End Site
          {
            OFFSET 0 0 0
          }
        }
      }
    }
  }
}
MOTION
Frames: 15
Frame Time: 0.033333
31.016007 76.551978 380.578853 5.918865 -24.223876 25.600597 -1.573174 -2.063755 -23.929374 -0.041871 2.462199 0.141742 32.471082 19.647073 -12.714104 0.000000 0.000000 0.000000 -17.008561 29.998220 5.219072 123.572881 81.916241 -115.510368 7.828379 16.360481 29.164831 -37.938512 -21.525005 -41.451320 0.000000 0.000000 0.000000 0.000000 0.000000 0.000000 -11.284512 36.141456 7.469801 -115.680194 -2.065887 38.179757 -27.851242 -18.470469 -73.023371 -73.115468 57.966459 169.483784 0.000000 0.000000 0.000000 0.000000 0.000000 0.000000 9.206082 34.592122 -29.934879 1.458371 -4.516964 2.265016 -1.773549 15.907742 -2.475266 0.000000 0.000000 0.000000 0.850178 31.263411 -22.544554 5.014153 2.284057 -0.632220 2.989679 -8.865096 -2.067206 0.000000 0.000000 0.000000
31.856563 76.964449 383.512648 6.668452 -29.512824 26.521909 -1.595146 -1.748726 -24.285216 -0.632326 4.080639 0.221363 33.948309 27.217282 -15.640783 0.000000 0.000000 0.000000 -25.198455 29.735118 9.858770 -177.253264 78.681720 -171.639321 14.339476 13.221249 36.286851 -55.221100 -25.449804 -51.602068 0.000000 0.000000 0.000000 0.000000 0.000000 0.000000 -5.738302 37.049251 3.643647 -120.582637 -4.237874 40.983767 -28.099218 -15.821192 -72.011902 -62.786865 57.978279 160.804574 0.000000 0.000000 0.000000 0.000000 0.000000 0.000000 13.965189 42.379605 -33.802397 1.739841 -6.965502 3.005314 -0.684574 12.063505 -2.425018 0.000000 0.000000 0.000000 2.625337 39.471589 -22.501249 6.262409 0.596896 -1.057331 4.302040 -12.587902 -2.441961 0.000000 0.000000 0.000000
32.738177 77.449829 386.663443 7.570704 -34.675852 25.301268 -1.448877 -1.445497 -22.388562 -1.332839 5.408696 0.400504 32.306299 35.576727 -17.214716 0.000000 0.000000 0.000000 -34.199055 27.332168 15.069309 -167.578347 70.370605 -172.867666 19.234229 11.957639 41.237041 -54.279882 -20.471786 -47.927275 0.000000 0.000000 0.000000 0.000000 0.000000 0.000000 -0.519032 38.464361 -0.136900 -125.738568 -5.735263 44.001639 -28.595797 -12.797119 -71.875642 -48.274202 60.112900 146.490468 0.000000 0.000000 0.000000 0.000000 0.000000 0.000000 17.451883 50.690864 -35.785796 2.025571 -9.734556 3.763189 -0.184672 13.387142 -2.750262 0.000000 0.000000 0.000000 2.487285 48.249440 -19.395677 7.460007 -1.905734 -1.555731 5.641652 -16.232532 -2.721409 0.000000 0.000000 0.000000
33.457038 78.351161 390.710305 7.948755 -40.116290 22.076887 -0.697929 -1.682665 -18.796924 -2.039271 7.199492 0.635349 28.499126 42.351258 -17.038965 0.000000 0.000000 0.000000 -39.590781 25.588401 18.837514 -171.117899 64.604870 -161.535793 21.852857 10.393989 42.398856 -47.565760 -7.223406 -43.860275 0.000000 0.000000 0.000000 0.000000 0.000000 0.000000 2.361004 41.257084 -2.407573 -128.508677 -6.431356 45.025487 -32.749263 -12.311231 -76.383197 -43.511746 62.192245 140.841360 0.000000 0.000000 0.000000 0.000000 0.000000 0.000000 21.668563 60.512113 -37.791505 2.442121 -14.127202 4.906037 0.044843 11.902605 -2.601756 0.000000 0.000000 0.000000 0.377187 58.940437 -12.677967 8.644524 -6.642137 -2.252079 6.503283 -20.166047 -2.400968 0.000000 0.000000 0.000000
33.609211 77.259483 391.885535 7.547796 -40.834898 19.726073 -0.434050 -0.716991 -16.575768 -1.514465 4.799546 0.554213 20.052848 47.131522 -12.747855 0.000000 0.000000 0.000000 -44.495284 21.016647 21.353289 179.946964 59.135925 -141.954368 21.929588 11.813539 38.586447 -43.273231 2.827549 -42.509367 0.000000 0.000000 0.000000 0.000000 0.000000 0.000000 2.599772 41.280407 -3.140796 -128.455327 -7.686216 46.793617 -29.670785 -8.934517 -70.451463 -15.493610 60.600121 109.134772 0.000000 0.000000 0.000000 0.000000 0.000000 0.000000 19.935763 62.899355 -35.272043 2.986075 -15.294487 5.367336 -1.412934 13.011272 -2.162580 0.000000 0.000000 0.000000 -2.269399 61.407751 -8.258891 8.574926 -8.542955 -2.629076 6.793623 -20.738880 -2.273244 0.000000 0.000000 0.000000
33.407310 76.224128 392.379876 7.126883 -40.639329 18.222533 -0.360472 -0.592760 -15.272228 -1.198645 3.453335 0.500585 13.339236 49.719206 -8.608274 0.000000 0.000000 0.000000 -47.332597 16.394522 22.269326 173.594542 53.886876 -127.729800 20.961730 12.697867 33.511806 -39.632454 9.500222 -42.137925 0.000000 0.000000 0.000000 0.000000 0.000000 0.000000 2.093183 39.291910 -3.439190 -127.821714 -9.610032 49.254372 -18.966430 -4.091542 -57.678641 5.108819 46.648114 81.819567 0.000000 0.000000 0.000000 0.000000 0.000000 0.000000 18.762693 64.137774 -33.744434 3.459523 -16.577544 5.825451 -2.082694 13.832313 -2.033086 0.000000 0.000000 0.000000 -3.392810 62.850161 -5.849230 8.584723 -10.865340 -2.870001 6.389062 -20.516238 -2.143578 0.000000 0.000000 0.000000
33.036524 74.864303 391.793122 5.874882 -39.758064 16.801164 0.225364 -0.230586 -14.581844 -0.816716 2.271409 0.408303 10.585233 50.472433 -6.635544 0.000000 0.000000 0.000000 -48.383962 10.463701 21.389506 170.688266 43.832118 -117.584558 16.109873 12.541459 27.046827 -36.538562 10.416449 -40.884027 0.000000 0.000000 0.000000 0.000000 0.000000 0.000000 0.035726 34.757457 -2.847574 -124.952137 -12.737169 51.813643 -4.392549 8.069393 -38.446983 15.976512 18.932957 57.716346 0.000000 0.000000 0.000000 0.000000 0.000000 0.000000 16.555059 63.018951 -30.772267 4.046625 -16.241076 5.977825 -2.927642 15.406108 -2.053630 0.000000 0.000000 0.000000 -2.961040 61.598297 -5.332085 8.348320 -11.066871 -2.870766 6.163153 -19.620996 -2.648163 0.000000 0.000000 0.000000
32.687884 74.355491 392.872378 5.252072 -40.672237 13.614253 0.311275 0.014756 -11.616307 -0.743729 2.438931 0.374502 12.802622 50.336336 -8.045054 0.000000 0.000000 0.000000 -47.416366 6.967371 20.607513 167.698844 34.350072 -110.173249 8.727640 13.133998 19.253200 -33.309776 8.798731 -39.509215 0.000000 0.000000 0.000000 0.000000 0.000000 0.000000 -0.630551 31.551927 -3.015691 -122.500309 -14.873314 54.407757 8.272950 20.325532 -24.855583 12.574672 -4.242635 43.483693 0.000000 0.000000 0.000000 0.000000 0.000000 0.000000 13.617096 65.952892 -26.757089 4.848939 -18.015837 6.763740 -4.198934 14.358463 -1.580946 0.000000 0.000000 0.000000 -6.932648 64.923619 1.091666 7.943635 -14.575071 -3.445899 6.567292 -19.584745 -3.510939 0.000000 0.000000 0.000000
32.846772 74.896560 395.510770 5.661869 -43.288293 9.302033 0.496167 0.191556 -7.070906 -1.190560 3.764116 0.500702 20.174110 48.851255 -13.268883 0.000000 0.000000 0.000000 -45.604171 5.296867 20.196063 164.441034 27.912901 -105.868038 2.760654 16.135639 12.492724 -30.120463 5.774356 -38.066416 0.000000 0.000000 0.000000 0.000000 0.000000 0.000000 -0.971646 30.114562 -3.353726 -120.597584 -15.898082 56.348229 17.539343 29.704033 -17.270493 1.268313 -20.230409 30.266201 0.000000 0.000000 0.000000 0.000000 0.000000 0.000000 4.993282 73.197167 -18.016866 6.357672 -21.941919 8.347021 -3.626602 15.034981 -2.093741 0.000000 0.000000 0.000000 -22.882774 70.906616 19.373746 8.316496 -19.871435 -4.124079 7.345260 -20.884567 -4.561751 0.000000 0.000000 0.000000
31.337175 73.028371 392.936458 3.749390 -39.883655 9.180505 0.026662 0.694133 -7.711445 -0.057815 1.753991 0.149752 22.400726 45.332372 -13.798710 0.000000 0.000000 0.000000 -40.089724 4.776869 17.262609 158.736494 21.991212 -102.120742 15.371774 11.493853 18.562798 -42.965926 21.345777 -44.814046 0.000000 0.000000 0.000000 0.000000 0.000000 0.000000 1.246396 26.628184 -4.802865 -121.222875 -16.704662 57.560095 22.110816 33.068780 -15.172755 -5.237012 -24.502837 24.500283 0.000000 0.000000 0.000000 0.000000 0.000000 0.000000 8.412036 67.388557 -20.003354 5.418201 -20.290563 7.584712 -3.103107 13.959097 -2.318692 0.000000 0.000000 0.000000 -8.328952 65.670086 5.810489 5.772752 -17.885444 -4.323199 6.565292 -17.705372 -5.038816 0.000000 0.000000 0.000000
30.944571 72.920049 393.599394 3.554565 -40.220422 8.846864 0.116709 0.470257 -7.476448 -0.396857 3.163390 0.213207 24.213266 42.855822 -14.441893 0.000000 0.000000 0.000000 -38.118647 4.463565 16.174958 156.531985 20.607056 -100.778123 16.365633 11.174434 18.400202 -44.177841 23.968518 -45.980200 0.000000 0.000000 0.000000 0.000000 0.000000 0.000000 4.789085 25.244563 -6.934064 -124.031047 -17.146602 57.541520 21.083482 31.254970 -16.360566 -3.459954 -22.225940 27.127971 0.000000 0.000000 0.000000 0.000000 0.000000 0.000000 10.164185 69.661435 -21.786763 5.701455 -22.562414 8.245128 -1.844782 12.658486 -2.716512 0.000000 0.000000 0.000000 -7.907953 67.524116 6.289399 5.056064 -20.286976 -4.866951 6.077635 -15.244823 -4.960992 0.000000 0.000000 0.000000
30.342872 72.259718 391.933116 3.140793 -38.028814 12.650337 -0.026840 0.614442 -11.447750 -0.106843 1.550335 0.149206 25.157959 40.784717 -14.646329 0.000000 0.000000 0.000000 -38.002535 6.625685 16.174972 157.192469 26.026521 -103.401820 19.212525 12.664792 21.298553 -44.908589 22.524308 -46.498355 0.000000 0.000000 0.000000 0.000000 0.000000 0.000000 8.887052 25.380780 -9.127917 -128.557711 -16.899346 56.518864 13.735265 24.466296 -21.355089 3.533158 -10.633260 39.371141 0.000000 0.000000 0.000000 0.000000 0.000000 0.000000 17.719889 65.340525 -29.823875 5.533449 -21.717340 7.968776 -2.101245 11.495316 -2.541276 0.000000 0.000000 0.000000 3.779891 62.456182 -6.644351 3.674891 -17.565749 -4.740452 6.206683 -15.212647 -4.509758 0.000000 0.000000 0.000000
30.674034 73.203210 392.578606 3.873250 -39.059740 15.455693 0.382117 0.379938 -14.072074 -0.951049 2.601972 0.389178 25.737687 39.617375 -15.052699 0.000000 0.000000 0.000000 -34.883343 10.185875 15.578330 153.516699 27.829403 -103.157522 22.400183 12.020011 24.056125 -47.275891 25.663401 -47.643208 0.000000 0.000000 0.000000 0.000000 0.000000 0.000000 12.316590 27.603210 -10.955560 -133.463246 -15.464349 55.333508 2.568911 13.217446 -32.445463 9.744377 11.560784 57.585598 0.000000 0.000000 0.000000 0.000000 0.000000 0.000000 24.825500 67.207114 -38.133064 6.053086 -23.553252 8.565079 -0.717331 7.905045 -2.466379 0.000000 0.000000 0.000000 6.114591 63.428886 -10.382739 4.643772 -17.160770 -4.495496 6.881866 -18.180060 -4.018438 0.000000 0.000000 0.000000
30.356718 73.014542 391.481028 3.417447 -37.549351 20.536900 0.617214 0.245692 -19.438784 -0.507110 0.773001 0.301538 25.000881 40.047816 -14.891516 0.000000 0.000000 0.000000 -31.208254 15.301187 14.760246 148.742315 30.148554 -102.233318 20.016749 10.080245 24.377189 -45.346410 27.235433 -48.763127 0.000000 0.000000 0.000000 0.000000 0.000000 0.000000 14.069684 31.714882 -11.711654 -135.832977 -12.631527 52.831676 -12.368753 0.545010 -49.531614 3.848162 37.986523 80.868900 0.000000 0.000000 0.000000 0.000000 0.000000 0.000000 32.275776 62.401741 -46.392581 5.753160 -22.783486 8.266895 -0.104645 7.391344 -2.756468 0.000000 0.000000 0.000000 14.369015 58.034309 -20.826402 4.870411 -13.905244 -3.660558 5.582791 -19.707102 -1.734438 0.000000 0.000000 0.000000
30.305922 72.337390 390.295772 2.937085 -35.972861 23.254487 1.074774 0.517691 -22.467315 -0.288221 -1.336972 0.295352 24.481300 41.588281 -14.709880 0.000000 0.000000 0.000000 -31.238696 16.216580 14.853535 148.730519 30.143587 -102.040329 20.501165 9.035996 25.580825 -45.649017 29.678205 -49.981482 0.000000 0.000000 0.000000 0.000000 0.000000 0.000000 15.567340 33.259282 -12.567197 -137.564693 -11.427986 51.892041 -18.567703 -4.809904 -58.432352 -5.074144 47.201352 93.872945 0.000000 0.000000 0.000000 0.000000 0.000000 0.000000 32.329617 57.640510 -46.917288 5.334923 -20.676015 7.613198 -0.720025 10.768170 -3.232279 0.000000 0.000000 0.000000 15.281795 52.828771 -24.128618 5.553869 -10.541264 -2.809526 5.181967 -21.229918 -0.673799 0.000000 0.000000 0.000000
